<?xml version="1.0" encoding="UTF-8"?>
<svg xmlns="http://www.w3.org/2000/svg" xmlns:xlink="http://www.w3.org/1999/xlink" width="141px" height="150px" viewBox="0 0 49 52" version="1.1">
<g id="surface1">
<path style=" stroke:none;fill-rule:nonzero;fill:rgb(99.607843%,99.607843%,100%);fill-opacity:1;" d="M 0.25 20 C 0.25 13.332031 0.25 6.792969 0.25 0.25 C 16.582031 0.25 32.917969 0.25 49.25 0.25 C 49.25 17.582031 49.25 34.917969 49.25 52.25 C 32.917969 52.25 16.582031 52.25 0.25 52.25 C 0.25 41.542969 0.25 30.832031 0.25 20 M 3.878906 50.292969 C 5.503906 50.5 7.128906 50.839844 8.757812 50.882812 C 12.265625 50.972656 13.660156 49.511719 13.660156 45.984375 C 13.660156 34.820312 13.660156 23.660156 13.660156 12.5 C 13.660156 10.542969 13.683594 8.582031 13.652344 6.628906 C 13.609375 4.171875 11.988281 2.570312 9.554688 2.539062 C 8.429688 2.523438 7.304688 2.523438 6.179688 2.539062 C 3.652344 2.566406 2.023438 4.160156 2.019531 6.675781 C 2.007812 20.042969 2.015625 33.414062 2.011719 46.78125 C 2.011719 48.210938 2.511719 49.375 3.878906 50.292969 M 43.8125 50.964844 C 46.972656 50.886719 48.472656 49.371094 48.472656 46.246094 C 48.476562 41.082031 48.476562 35.917969 48.476562 30.75 C 48.476562 22.796875 48.480469 14.839844 48.472656 6.886719 C 48.46875 4.191406 46.796875 2.535156 44.101562 2.519531 C 43.101562 2.511719 42.101562 2.507812 41.105469 2.519531 C 38.410156 2.542969 36.78125 4.1875 36.769531 6.910156 C 36.757812 9.117188 36.765625 11.324219 36.765625 13.53125 C 36.765625 24.527344 36.761719 35.523438 36.769531 46.519531 C 36.773438 49.257812 38.355469 50.875 41.078125 50.960938 C 41.910156 50.984375 42.746094 50.964844 43.8125 50.964844 M 19.472656 15.125 C 19.472656 25.65625 19.46875 36.191406 19.472656 46.722656 C 19.476562 49.34375 20.941406 50.792969 23.574219 50.816406 C 24.738281 50.824219 25.90625 50.832031 27.070312 50.8125 C 29.445312 50.777344 31.003906 49.269531 31.003906 46.917969 C 31.019531 33.472656 31.019531 20.023438 31.003906 6.578125 C 31.003906 4.191406 29.414062 2.609375 27.011719 2.535156 C 25.804688 2.5 24.597656 2.507812 23.390625 2.535156 C 21.089844 2.589844 19.488281 4.214844 19.476562 6.507812 C 19.460938 9.296875 19.472656 12.085938 19.472656 15.125 Z M 19.472656 15.125 "/>
<path style=" stroke:none;fill-rule:nonzero;fill:rgb(39.607844%,38.039216%,78.431374%);fill-opacity:1;" d="M 3.796875 50.246094 C 2.511719 49.375 2.011719 48.210938 2.011719 46.78125 C 2.015625 33.414062 2.007812 20.042969 2.019531 6.675781 C 2.023438 4.160156 3.652344 2.566406 6.179688 2.539062 C 7.304688 2.523438 8.429688 2.523438 9.554688 2.539062 C 11.988281 2.570312 13.609375 4.171875 13.652344 6.628906 C 13.683594 8.582031 13.660156 10.542969 13.660156 12.5 C 13.660156 23.660156 13.660156 34.820312 13.660156 45.984375 C 13.660156 49.511719 12.265625 50.972656 8.757812 50.882812 C 7.128906 50.839844 5.503906 50.5 3.796875 50.246094 Z M 3.796875 50.246094 "/>
<path style=" stroke:none;fill-rule:nonzero;fill:rgb(69.411767%,68.627453%,88.627452%);fill-opacity:1;" d="M 43.695312 50.964844 C 42.746094 50.964844 41.910156 50.984375 41.078125 50.960938 C 38.355469 50.875 36.773438 49.257812 36.769531 46.519531 C 36.761719 35.523438 36.765625 24.527344 36.765625 13.53125 C 36.765625 11.324219 36.757812 9.117188 36.769531 6.910156 C 36.78125 4.1875 38.410156 2.542969 41.105469 2.519531 C 42.101562 2.507812 43.101562 2.511719 44.101562 2.519531 C 46.796875 2.535156 48.46875 4.191406 48.472656 6.886719 C 48.480469 14.839844 48.476562 22.796875 48.476562 30.75 C 48.476562 35.917969 48.476562 41.082031 48.472656 46.246094 C 48.472656 49.371094 46.972656 50.886719 43.695312 50.964844 Z M 43.695312 50.964844 "/>
<path style=" stroke:none;fill-rule:nonzero;fill:rgb(54.11765%,52.941179%,83.529413%);fill-opacity:1;" d="M 19.472656 15 C 19.472656 12.085938 19.460938 9.296875 19.476562 6.507812 C 19.488281 4.214844 21.089844 2.589844 23.390625 2.535156 C 24.597656 2.507812 25.804688 2.5 27.011719 2.535156 C 29.414062 2.609375 31.003906 4.191406 31.003906 6.578125 C 31.019531 20.023438 31.019531 33.472656 31.003906 46.917969 C 31.003906 49.269531 29.445312 50.777344 27.070312 50.8125 C 25.90625 50.832031 24.738281 50.824219 23.574219 50.816406 C 20.941406 50.792969 19.476562 49.34375 19.472656 46.722656 C 19.46875 36.191406 19.472656 25.65625 19.472656 15 Z M 19.472656 15 "/>
</g>
</svg>
